HIERARCHY
ROOT Hips
{
	OFFSET 0.000000 0.000000 0.000000
	CHANNELS 6 Xposition Yposition Zposition Xrotation Yrotation Zrotation
	JOINT LeftUpLeg_virtual
	{
		OFFSET 0.000000 0.000000 0.000000
		CHANNELS 3 Xrotation Yrotation Zrotation
		JOINT LeftUpLeg
		{
			OFFSET 13.026900 -6.336304 -1.092800
			CHANNELS 3 Xrotation Yrotation Zrotation
			JOINT LeftLeg
			{
				OFFSET 0.524474 -46.096886 9.782700
				CHANNELS 3 Xrotation Yrotation Zrotation
				JOINT LeftFoot
				{
					OFFSET -0.524474 -53.427422 -12.948200
					CHANNELS 3 Xrotation Yrotation Zrotation
					JOINT LeftToeBase
					{
						OFFSET 0.192200 -14.009700 16.364100
						CHANNELS 3 Xrotation Yrotation Zrotation
						JOINT LeftToe_End
						{
							OFFSET -1.784700 -0.561700 9.474800
							CHANNELS 3 Xrotation Yrotation Zrotation
							End Site
							{
								OFFSET 0 0 0
							}
						}
					}
				}
			}
		}
	}
	JOINT RightUpLeg_virtual
	{
		OFFSET 0.000000 0.000000 0.000000
		CHANNELS 3 Xrotation Yrotation Zrotation
		JOINT RightUpLeg
		{
			OFFSET -12.883000 -6.336304 -1.092800
			CHANNELS 3 Xrotation Yrotation Zrotation
			JOINT RightLeg
			{
				OFFSET -0.524587 -46.096825 9.782800
				CHANNELS 3 Xrotation Yrotation Zrotation
				JOINT RightFoot
				{
					OFFSET 0.524587 -53.427383 -12.948300
					CHANNELS 3 Xrotation Yrotation Zrotation
					JOINT RightToeBase
					{
						OFFSET -0.192200 -14.009700 16.364100
						CHANNELS 3 Xrotation Yrotation Zrotation
						JOINT RightToe_End
						{
							OFFSET 1.784700 -0.561700 9.474800
							CHANNELS 3 Xrotation Yrotation Zrotation
							End Site
							{
								OFFSET 0 0 0
							}
						}
					}
				}
			}
		}
	}
	JOINT Spine_virtual
	{
		OFFSET 0.000000 0.000000 0.000000
		CHANNELS 3 Xrotation Yrotation Zrotation
		JOINT Spine
		{
			OFFSET 0.072000 7.257294 -0.789700
			CHANNELS 3 Xrotation Yrotation Zrotation
			JOINT Spine1
			{
				OFFSET 0.000000 12.508769 -0.658067
				CHANNELS 3 Xrotation Yrotation Zrotation
				JOINT Spine1_split
				{
					OFFSET 0.000000 12.508769 -0.658067
					CHANNELS 3 Xrotation Yrotation Zrotation
					JOINT Spine2
					{
						OFFSET 0.000000 12.508769 -0.658067
						CHANNELS 3 Xrotation Yrotation Zrotation
						JOINT Neck_virtual
						{
							OFFSET 0.000000 0.000000 0.000000
							CHANNELS 3 Xrotation Yrotation Zrotation
							JOINT Neck
							{
								OFFSET 0.000000 14.033295 7.520400
								CHANNELS 3 Xrotation Yrotation Zrotation
								JOINT Head
								{
									OFFSET 0.000000 8.198502 5.703100
									CHANNELS 3 Xrotation Yrotation Zrotation
									JOINT HeadTop_End
									{
										OFFSET 0.000000 17.760803 13.332701
										CHANNELS 3 Xrotation Yrotation Zrotation
										End Site
										{
											OFFSET 0 0 0
										}
									}
								}
							}
						}
						JOINT LeftShoulder_virtual
						{
							OFFSET 0.000000 0.000000 0.000000
							CHANNELS 3 Xrotation Yrotation Zrotation
							JOINT LeftShoulder
							{
								OFFSET 6.292450 5.785301 -0.669000
								CHANNELS 3 Xrotation Yrotation Zrotation
								JOINT LeftShoulder_split
								{
									OFFSET 6.292450 5.785301 -0.669000
									CHANNELS 3 Xrotation Yrotation Zrotation
									JOINT LeftArm
									{
										OFFSET 13.907140 -6.093903 1.965100
										CHANNELS 3 Xrotation Yrotation Zrotation
										JOINT LeftForeArm
										{
											OFFSET 34.140198 0.000000 0.000000
											CHANNELS 3 Xrotation Yrotation Zrotation
											JOINT LeftHand
											{
												OFFSET 40.960209 0.000000 0.000000
												CHANNELS 3 Xrotation Yrotation Zrotation
												End Site
												{
													OFFSET 0 0 0
												}
											}
										}
									}
								}
							}
						}
						JOINT RightShoulder_virtual
						{
							OFFSET 0.000000 0.000000 0.000000
							CHANNELS 3 Xrotation Yrotation Zrotation
							JOINT RightShoulder
							{
								OFFSET -6.292450 5.785301 -0.669000
								CHANNELS 3 Xrotation Yrotation Zrotation
								JOINT RightShoulder_split
								{
									OFFSET -6.292450 5.785301 -0.669000
									CHANNELS 3 Xrotation Yrotation Zrotation
									JOINT RightArm
									{
										OFFSET -13.907140 -6.093903 1.965100
										CHANNELS 3 Xrotation Yrotation Zrotation
										JOINT RightForeArm
										{
											OFFSET -34.140198 0.000000 0.000000
											CHANNELS 3 Xrotation Yrotation Zrotation
											JOINT RightHand
											{
												OFFSET -40.960209 0.000000 0.000000
												CHANNELS 3 Xrotation Yrotation Zrotation
												End Site
												{
													OFFSET 0 0 0
												}
											}
										}
									}
								}
							}
						}
					}
				}
			}
		}
	}
}
MOTION
Frames: 4
Frame Time: 0.03333333
0.430288 116.015739 -0.606285 0.000000 0.000000 0.000000 -2.805362 5.398058 -2.056803 -9.634784 11.037448 13.973924 14.631023 -4.024392 -0.392313 -5.286917 0.798478 -5.760757 0.632505 0.103618 -1.627771 0.000000 0.000000 0.000000 -3.041574 6.164046 -1.872997 -14.897997 -4.209436 -1.672074 15.029546 2.483274 -1.257673 3.840300 0.404969 1.559722 -1.581556 0.259595 1.275550 0.000000 0.000000 0.000000 -2.896281 8.413079 -2.008297 9.747172 -0.342062 1.449850 3.207691 0.204871 -0.561195 0.273511 -2.193044 1.162909 0.000000 0.000000 0.000000 -4.287149 0.014316 0.111795 -0.055354 0.084467 0.465598 6.402011 -3.805300 -1.268324 0.000000 0.000000 0.000000 -4.703912 -0.423155 0.173832 0.588942 -3.796712 -8.437398 -0.711776 -2.089258 1.000435 4.862420 1.604483 -72.191951 3.423262 -11.809687 1.326649 0.000000 0.000000 0.000000 -5.442564 -0.758874 0.172774 0.653550 8.556755 5.820768 -3.082734 -0.938464 -0.419714 3.513589 12.499785 76.546333 16.801439 19.097579 -4.898252 0.000000 0.000000 0.000000 
0.722188 116.038315 -0.815742 0.000000 0.000000 0.000000 -2.641506 5.376482 -2.011289 -9.461938 10.901207 13.778021 14.660916 -3.806581 -0.400978 -5.524024 0.939487 -5.824663 0.689713 0.087525 -1.619744 0.000000 0.000000 0.000000 -2.738502 6.045814 -1.907465 -15.019475 -4.454973 -1.829554 14.788111 2.448884 -1.297352 3.646982 0.461153 1.175371 -1.265726 0.273800 1.213667 0.000000 0.000000 0.000000 -2.648777 7.974073 -2.021632 9.641391 -0.307956 1.459287 3.184735 0.215566 -0.578506 0.321842 -2.359344 0.989144 0.000000 0.000000 0.000000 -4.190978 0.038117 0.101827 -0.043215 0.187978 0.441795 6.459584 -3.961151 -1.105661 0.000000 0.000000 0.000000 -4.695292 -0.414403 0.125574 0.631774 -3.748272 -8.344936 -0.768749 -1.992730 1.042689 4.750354 1.446926 -72.198685 3.393585 -11.898295 1.307066 0.000000 0.000000 0.000000 -5.462787 -0.739738 0.197457 0.631998 8.203522 5.664809 -3.103184 -0.914266 -0.439249 3.432767 12.883213 76.455287 16.858720 19.578251 -5.086333 0.000000 0.000000 0.000000 
1.123855 115.899139 -0.764278 0.000000 0.000000 0.000000 -2.607115 5.412527 -2.022845 -9.319845 10.734078 13.606197 14.940477 -3.552017 -0.492503 -5.956523 1.076042 -5.822729 0.795157 0.067958 -1.569084 0.000000 0.000000 0.000000 -2.497074 5.894376 -2.026451 -14.818594 -4.607603 -2.097556 14.526038 2.555587 -1.375366 3.133643 0.745545 0.862223 -1.415423 0.307106 1.010931 0.000000 0.000000 0.000000 -2.457938 7.503630 -1.989167 9.495122 -0.200968 1.472833 3.185775 0.264476 -0.602359 0.345555 -2.366874 0.840538 0.000000 0.000000 0.000000 -4.056018 0.084890 0.091774 -0.138636 0.354945 0.289992 6.367219 -4.081579 -0.863858 0.000000 0.000000 0.000000 -4.632033 -0.380706 0.078078 0.690388 -3.697936 -8.137967 -0.860636 -2.032084 1.078080 4.605017 1.127533 -72.118916 3.454305 -12.004923 1.253689 0.000000 0.000000 0.000000 -5.393565 -0.694003 0.206251 0.637081 7.867110 5.446944 -3.051485 -1.034441 -0.459972 3.447008 13.412617 76.320964 16.978817 20.351706 -5.678767 0.000000 0.000000 0.000000 
1.591763 115.625854 -0.413639 0.000000 0.000000 0.000000 -2.687360 5.434859 -2.068986 -9.199169 10.577018 13.443706 15.301832 -3.238148 -0.660884 -6.462345 1.162663 -5.752262 0.803175 0.044214 -1.458816 0.000000 0.000000 0.000000 -2.345146 5.749144 -2.142511 -14.338206 -4.726137 -2.511094 14.356677 2.754534 -1.398663 2.464060 1.203729 0.659865 -1.866981 0.358440 0.743661 0.000000 0.000000 0.000000 -2.398027 7.117341 -1.923083 9.329176 -0.066766 1.485223 3.209091 0.335837 -0.609664 0.322960 -2.239488 0.765789 0.000000 0.000000 0.000000 -3.917458 0.133577 0.103942 -0.296087 0.548082 0.038654 6.143835 -4.192615 -0.555784 0.000000 0.000000 0.000000 -4.519861 -0.333383 0.052176 0.762356 -3.642141 -7.873891 -1.022282 -2.100239 1.095388 4.483290 0.688229 -72.053674 3.601685 -12.078424 1.170523 0.000000 0.000000 0.000000 -5.241691 -0.634840 0.214061 0.670788 7.587012 5.196443 -2.993364 -1.215940 -0.535602 3.516432 13.897410 76.207795 17.101322 21.198242 -6.571160 0.000000 0.000000 0.000000 
